HIERARCHY
ROOT Hips
{
	OFFSET 0.00000 0.00000 0.00000
	CHANNELS 6 Xposition Yposition Zposition Zrotation Yrotation Xrotation 
	JOINT LHipJoint
	{
		OFFSET 0 0 0
		CHANNELS 3 Zrotation Yrotation Xrotation
		JOINT LeftUpLeg
		{
			OFFSET 2.36090 -1.39315 1.24752
			CHANNELS 3 Zrotation Yrotation Xrotation
			JOINT LeftLeg
			{
				OFFSET 2.06810 -5.68207 0.00000
				CHANNELS 3 Zrotation Yrotation Xrotation
				JOINT LeftFoot
				{
					OFFSET 2.46631 -6.77613 0.00000
					CHANNELS 3 Zrotation Yrotation Xrotation
					JOINT LeftToeBase
					{
						OFFSET 0.26031 -0.71520 1.99545
						CHANNELS 3 Zrotation Yrotation Xrotation
						End Site
						{
							OFFSET 0.00000 -0.00000 1.05957
						}
					}
				}
			}
		}
	}
	JOINT RHipJoint
	{
		OFFSET 0 0 0
		CHANNELS 3 Zrotation Yrotation Xrotation
		JOINT RightUpLeg
		{
			OFFSET -2.25243 -1.39315 1.24752
			CHANNELS 3 Zrotation Yrotation Xrotation
			JOINT RightLeg
			{
				OFFSET -2.17343 -5.97145 0.00000
				CHANNELS 3 Zrotation Yrotation Xrotation
				JOINT RightFoot
				{
					OFFSET -2.52372 -6.93386 0.00000
					CHANNELS 3 Zrotation Yrotation Xrotation
					JOINT RightToeBase
					{
						OFFSET -0.22538 -0.61923 2.11447
						CHANNELS 3 Zrotation Yrotation Xrotation
						End Site
						{
							OFFSET -0.00000 -0.00000 1.10506
						}
					}
				}
			}
		}
	}
	JOINT LowerBack
	{
		OFFSET 0 0 0
		CHANNELS 3 Zrotation Yrotation Xrotation
		JOINT Spine
		{
			OFFSET 0.01594 2.13103 0.08007
			CHANNELS 3 Zrotation Yrotation Xrotation
			JOINT Spine1
			{
				OFFSET 0.01393 2.09723 0.18338
				CHANNELS 3 Zrotation Yrotation Xrotation
				JOINT Neck
				{
					OFFSET 0 0 0
					CHANNELS 3 Zrotation Yrotation Xrotation
					JOINT Neck1
					{
						OFFSET 0.05351 1.38915 0.32494
						CHANNELS 3 Zrotation Yrotation Xrotation
						JOINT Head
						{
							OFFSET 0.00711 1.45992 -0.21666
							CHANNELS 3 Zrotation Yrotation Xrotation
							End Site
							{
								OFFSET -0.00433 1.47702 -0.11056
							}
						}
					}
				}
				JOINT LeftShoulder
				{
					OFFSET 0 0 0
					CHANNELS 3 Zrotation Yrotation Xrotation
					JOINT LeftArm
					{
						OFFSET 2.87198 0.92249 0.11132
						CHANNELS 3 Zrotation Yrotation Xrotation
						JOINT LeftForeArm
						{
							OFFSET 5.52731 -0.00000 0.00000
							CHANNELS 3 Zrotation Yrotation Xrotation
							JOINT LeftHand
							{
								OFFSET 3.11059 -0.00000 0.00000
								CHANNELS 3 Zrotation Yrotation Xrotation
								JOINT LeftFingerBase
								{
									OFFSET 0 0 0
									CHANNELS 3 Zrotation Yrotation Xrotation
									JOINT LeftHandIndex1
									{
										OFFSET 0.41963 -0.00000 0.00000
										CHANNELS 3 Zrotation Yrotation Xrotation
										End Site
										{
											OFFSET 0.33831 -0.00000 0.00000
										}
									}
								}
								JOINT LThumb
								{
									OFFSET 0 0 0
									CHANNELS 3 Zrotation Yrotation Xrotation
									End Site
									{
										OFFSET 0.34348 -0.00000 0.34348
									}
								}
							}
						}
					}
				}
				JOINT RightShoulder
				{
					OFFSET 0 0 0
					CHANNELS 3 Zrotation Yrotation Xrotation
					JOINT RightArm
					{
						OFFSET -2.94710 0.68072 0.32187
						CHANNELS 3 Zrotation Yrotation Xrotation
						JOINT RightForeArm
						{
							OFFSET -5.25396 -0.00000 -0.00000
							CHANNELS 3 Zrotation Yrotation Xrotation
							JOINT RightHand
							{
								OFFSET -3.10567 -0.00000 0.00000
								CHANNELS 3 Zrotation Yrotation Xrotation
								JOINT RightFingerBase
								{
									OFFSET 0 0 0
									CHANNELS 3 Zrotation Yrotation Xrotation
									JOINT RightHandIndex1
									{
										OFFSET -0.49868 -0.00000 0.00000
										CHANNELS 3 Zrotation Yrotation Xrotation
										End Site
										{
											OFFSET -0.40204 -0.00000 0.00000
										}
									}
								}
								JOINT RThumb
								{
									OFFSET 0 0 0
									CHANNELS 3 Zrotation Yrotation Xrotation
									End Site
									{
										OFFSET -0.40818 -0.00000 0.40818
									}
								}
							}
						}
					}
				}
			}
		}
	}
}
MOTION
Frames: 10
Frame Time: 0.0606061
0.00 0.00 0.00 0 0 0 0 0 0 -21 0 0 0 0 0 0 0 0 0 0 0 0 0 0 21 0 0 0 0 0 0 0 0 0 0 0 0 0 0 0 0 0 0 0 0 0 0 -16 0 0 21 0 0 11 0 0 0 -8 0 0 0 0 0 0 0 0 0 0 0 0 0 0 0 0 0 0 0 0 8 0 0 0 0 0 0 0 0 0 0 0 0 0 0 0 0 0
0.00 0.00 0.00 1.7542 2.2961 24.2251 0.0000 0.0000 0.0000 -29.2735 -0.4640 -34.8481 0.7791 5.6353 15.7298 -2.1172 29.1774 -28.2030 1.7437 8.3106 23.6614 0.0000 0.0000 0.0000 11.5971 2.4097 -37.6764 -6.2841 -14.6981 46.1115 -0.1417 -14.5403 -22.1224 -1.3680 7.4024 -20.9130 -5.6188 -1.9623 -17.3205 -0.2709 -1.7295 -9.1513 2.5910 -0.6766 0.0459 5.2294 6.4036 -23.9436 -6.0874 8.5454 19.1439 -1.6551 3.5558 10.5881 0.0000 0.0000 0.0000 -55.3181 -11.0013 9.4769 22.8157 -33.8867 -7.0353 -0.0000 0.0000 -43.1691 31.9935 5.0535 3.1497 -7.1250 0.0000 -0.0000 4.4579 35.9025 -0.9993 0.0000 0.0000 0.0000 81.0036 -12.0308 -2.6350 -20.3450 31.0558 -5.7083 0.0000 -0.0000 -27.9870 -35.7057 -34.7249 22.2648 7.1250 -0.0000 -0.0000 -4.2809 -70.4189 2.6002
0.00 0.00 0.00 0.0037 -18.4955 24.5690 0.0000 0.0000 0.0000 -19.3188 -9.9841 -30.0922 0.6700 5.2344 14.5783 -0.5189 27.9392 -36.4668 1.5352 7.8223 22.1756 0.0000 0.0000 0.0000 10.6993 19.0852 -35.0822 -4.2165 -12.4431 37.3181 -0.3695 -11.7631 -21.0474 -0.4690 4.3926 -12.1839 -2.0950 -2.7486 -17.4660 0.8426 -3.4457 -9.0617 1.4700 -1.6999 0.2605 4.7766 5.0696 -25.6148 -7.2715 7.0481 18.8938 -2.2421 2.6471 10.7418 -0.0000 -0.0000 0.0000 -72.7099 -10.9528 24.1408 18.4458 -28.7243 -4.7616 -0.0000 0.0000 -47.2187 32.7360 7.0861 4.5344 -7.1250 0.0000 -0.0000 5.1264 38.3397 -0.8435 -0.0000 -0.0000 0.0000 81.6165 -0.5668 47.1667 -45.9922 51.2454 -23.0100 0.0000 -0.0000 -29.7963 -17.9302 -29.6845 9.1038 7.1250 -0.0000 -0.0000 15.2997 -60.2534 -5.7725
0.00 0.00 0.00 -1.9997 -33.3046 22.4518 0.0000 0.0000 0.0000 -15.1166 -10.8796 -25.5371 1.0851 6.6205 18.5958 -0.2224 22.5060 -30.2289 0.6262 5.0636 14.0900 0.0000 0.0000 0.0000 12.9888 26.7380 -31.5310 -3.9035 -12.0309 35.8414 -0.6684 -4.4692 -17.7096 -0.2984 3.5125 -9.7091 -0.9665 -3.4056 -17.2417 2.9573 -4.6188 -8.8331 2.8491 -2.3224 0.5278 4.4776 5.0554 -22.1744 -6.3275 7.2256 22.1190 -1.8871 2.8318 11.2634 -0.0000 -0.0000 0.0000 -90.5054 -12.5882 47.5093 16.6862 -26.4422 -3.9466 -0.0000 0.0000 -42.6046 29.7507 11.1959 6.3326 -7.1250 0.0000 -0.0000 2.3872 42.8101 -0.1291 -0.0000 -0.0000 0.0000 77.6085 8.6909 71.2812 -75.8018 59.2244 -47.7360 0.0000 -0.0000 -22.3769 7.0580 -13.3348 -1.6357 7.1250 -0.0000 -0.0000 30.0246 -41.2384 3.1058
0.00 0.00 0.00 -5.7958 -47.7832 20.0602 0.0000 0.0000 0.0000 -11.0523 -13.7262 -25.9688 4.2394 12.4724 37.4242 0.6177 13.6944 -25.3921 0.0005 -0.1405 -0.3862 0.0000 0.0000 0.0000 17.4842 31.4246 -31.4155 -5.7939 -14.2256 44.1490 -0.9461 6.1710 -17.3505 -0.1882 2.7939 -7.7054 2.4356 -2.9664 -13.4590 2.9079 -4.4551 -6.5080 1.0434 -2.3178 0.7390 6.4009 5.9965 -21.9749 -6.1079 7.8838 23.3044 -2.0199 3.3007 11.7908 -0.0000 0.0000 0.0000 -86.0594 -16.2566 75.1131 33.2893 -43.5512 -13.6210 -0.0000 0.0000 -22.5997 20.8372 -1.6889 -0.6427 -7.1250 0.0000 -0.0000 -4.4416 28.1630 1.8244 -0.0000 0.0000 0.0000 79.8901 13.0636 74.5088 -81.7760 59.7429 -52.8839 0.0000 -0.0000 -24.6794 10.6696 -16.0166 -2.9758 7.1250 -0.0000 -0.0000 34.1246 -43.1541 1.7819
0.00 0.00 0.00 -5.7928 -61.4334 16.3970 0.0000 0.0000 0.0000 -11.6132 -17.6218 -26.6668 9.4024 17.0598 57.4718 -0.4729 18.4198 -21.5993 1.0671 -6.5671 -18.4391 0.0000 0.0000 0.0000 17.8149 36.8186 -31.5478 -8.0864 -16.1825 52.8734 -0.8876 14.9928 -18.5318 -0.0019 -0.2833 0.7784 1.7535 -3.7517 -11.1222 3.4164 -5.3848 -4.1404 1.8712 -2.7324 2.0665 9.4403 9.2264 -19.5401 -10.2477 12.6350 21.4544 -3.2398 5.2594 11.5225 -0.0000 -0.0000 0.0000 -84.4210 -18.9732 75.3059 37.9377 -46.7995 -16.9202 -0.0000 0.0000 -2.8231 27.6831 -15.9008 -8.1794 -7.1250 0.0000 -0.0000 -0.0183 12.1469 0.0140 -0.0000 -0.0000 0.0000 79.8285 13.8388 68.3929 -67.8466 58.0619 -40.9394 0.0000 -0.0000 -33.2979 4.1511 -15.2809 -1.0958 7.1250 -0.0000 -0.0000 28.4850 -43.2586 1.3421
0.00 0.00 0.00 -5.3549 -68.5572 15.5817 0.0000 0.0000 0.0000 -10.6279 -25.4092 -30.5122 13.3698 18.9117 70.2703 -0.8115 15.7249 -5.1798 2.2188 -9.3077 -26.7626 0.0000 0.0000 0.0000 16.6462 40.1888 -31.8761 -8.8977 -16.7414 55.7356 -0.6362 19.4768 -18.6081 -0.1234 -2.2647 6.2377 3.0839 -4.5348 -11.3732 2.8885 -6.5845 -2.9205 0.3593 -3.2967 3.2899 12.5761 12.0975 -18.7798 -13.4688 16.5655 19.8580 -4.1532 6.9443 11.8695 -0.0000 -0.0000 0.0000 -83.0220 -15.8983 69.6727 33.0024 -43.3319 -13.4237 -0.0000 0.0000 -5.8917 15.6010 -9.5557 -2.6539 -7.1250 0.0000 -0.0000 -8.1111 20.1133 4.8757 -0.0000 -0.0000 0.0000 81.4945 8.9850 51.5586 -53.7687 54.4068 -29.2122 0.0000 -0.0000 -45.8622 -1.8781 -19.1379 0.6159 7.1250 -0.0000 -0.0000 25.0492 -47.4409 -1.6052
0.00 0.00 0.00 -11.5456 -76.5290 23.5961 0.0000 0.0000 0.0000 -2.9635 -33.1229 -34.8755 14.1095 19.1469 72.5387 0.1188 -5.0581 10.2626 0.6910 -5.3143 -14.8071 0.0000 0.0000 0.0000 15.5432 44.8620 -28.1282 -6.8534 -15.2072 48.3175 -0.0552 21.5956 -15.6330 -0.1835 -2.7588 7.6080 5.7792 -4.8267 -12.3802 2.7607 -7.3673 -3.2791 -1.4104 -3.6938 3.0992 16.0719 14.5235 -16.5925 -15.2284 19.5780 17.9188 -4.7345 8.5029 11.7856 0.0000 -0.0000 0.0000 -81.9569 -2.5877 49.0923 20.5996 -31.3580 -5.8402 -0.0000 0.0000 -27.5574 25.2420 -1.3073 -0.6163 -7.1250 0.0000 -0.0000 -1.0339 28.5339 0.4145 0.0000 -0.0000 0.0000 77.1071 0.9689 7.5995 -20.0061 30.6497 -5.5345 0.0000 -0.0000 -29.0388 -10.9336 -19.1486 3.6258 7.1250 -0.0000 -0.0000 16.8270 -48.7074 -1.5798
0.00 0.00 0.00 -23.5976 -84.5085 39.2066 0.0000 0.0000 0.0000 1.1376 -39.2868 -27.9815 8.0871 16.1830 52.8760 -0.1454 -6.7505 2.1547 0.8934 -6.0244 -16.8553 0.0000 0.0000 0.0000 10.1337 50.8550 -25.5633 -4.6443 -12.9717 39.2626 -0.0071 20.3656 -14.3943 -0.0250 -1.0214 2.8078 3.4614 -2.5480 -14.8092 3.2395 -4.2611 -4.1008 0.6833 -2.1869 3.9458 15.3978 13.7081 -17.7485 -15.9559 18.4641 16.9635 -5.0884 7.8491 11.4747 0.0000 0.0000 0.0000 -76.1677 12.0076 34.9375 15.2393 -24.4784 -3.3244 -0.0000 0.0000 -25.9585 22.3985 2.6112 1.0757 -7.1250 0.0000 -0.0000 -3.4038 32.7907 1.0196 0.0000 0.0000 0.0000 62.0060 -19.6096 -38.2855 -11.7880 19.4859 -2.0310 0.0000 -0.0000 -4.9244 -46.4859 -36.5657 32.1072 7.1250 -0.0000 -0.0000 -26.1335 -75.8693 19.2347
0.00 0.00 0.00 -91.4621 -84.9140 107.9700 0.0000 0.0000 0.0000 -1.6030 -37.9413 -14.9735 3.9780 12.1311 36.1972 0.4272 -13.3719 -14.0036 3.3657 -11.2647 -33.1779 0.0000 0.0000 0.0000 5.7587 52.8117 -27.5607 -4.3686 -12.6353 38.0183 -0.0282 22.6948 -16.2023 -0.0384 1.2641 -3.4758 5.8905 -2.4334 -15.8124 3.2640 -4.6127 -3.1247 -0.7899 -2.2880 5.3325 17.2093 14.7029 -16.3043 -15.3236 18.9044 12.8240 -5.0595 8.4118 9.8947 0.0000 0.0000 0.0000 -72.3505 29.8059 9.6959 16.1463 -25.7186 -3.7092 -0.0000 0.0000 -32.1466 27.9235 4.0089 2.1220 -7.1250 0.0000 -0.0000 1.0643 34.5133 -0.2740 0.0000 0.0000 0.0000 54.6267 -35.3693 -28.4106 -15.4291 24.7405 -3.4035 0.0000 -0.0000 -14.3172 -32.5675 -28.9981 17.2048 7.1250 -0.0000 -0.0000 -2.3134 -63.2976 1.0274
